<svg xmlns="http://www.w3.org/2000/svg" width="196" height="49" fill="none" viewBox="0 0 196 49"><path fill="#00bfff" d="M6.52 12.483 5.41 15H2.712L.78 2.929zm12.702-.14-1.595 2.658h-7.271l-1.588-2.643L14.003.48zm6.044 2.658h-2.698l-1.1-2.499 5.723-9.538z"/><path fill="#000" d="M176.984 37.198q0 3.7 1.84 5.52 1.84 1.8 4.981 1.8t4.979-1.8q1.84-1.82 1.84-5.52v-17.04h4.5v17.08q0 3.24-1.279 5.86-1.26 2.6-3.781 4.14-2.5 1.52-6.259 1.52-3.741 0-6.261-1.52a9.8 9.8 0 0 1-3.779-4.12q-1.26-2.62-1.26-5.88v-17.08h4.479zm-160.73 10.96h-4.48V28.807l4.48-3.374zm23.162-28q2.92 0 5.04 1.02 2.14 1 3.3 2.86 1.18 1.86 1.18 4.42 0 2.08-.9 3.68-.88 1.6-2.48 2.64-1.6 1.02-3.7 1.38l8.44 12h-5.42l-7.74-11.3h-3.82v11.3h-4.48v-15h5.977v-.02h3.864q2.72 0 4.22-1.16 1.52-1.16 1.519-3.32 0-2.22-1.36-3.46-1.34-1.24-4.06-1.24h-10.16v-3.8zm20.463 28h-4.48v-28h4.48zm16.077-28q4.18 0 7.38 1.8a12.8 12.8 0 0 1 5 4.94q1.82 3.16 1.82 7.28-.001 3.06-1.04 5.64-1.02 2.56-2.92 4.42t-4.5 2.9q-2.6 1.02-5.74 1.02h-8.76v-28zm37.856 3.96h-13.621v7.56h11.76v3.74h-11.76v8.74h13.741v4H95.711v-28h18.101zm24.811 16.38v-20.34h4.36v28h-4.28l-14.12-20.58v20.58h-4.38v-28h4.28zm29.339-16.24h-7.88v23.9h-4.48v-23.9h-7.88v-4.1h20.24zm-96.286 19.72h3.74q2.26 0 4.1-.66 1.86-.68 3.18-1.96a8.6 8.6 0 0 0 2.06-3.08q.72-1.82.72-4.1 0-3.06-1.26-5.26a8.36 8.36 0 0 0-3.5-3.4q-2.26-1.2-5.3-1.2h-3.74zm-47.542-19.72H3.894v-4.1h20.24z"/></svg>